<svg xmlns="http://www.w3.org/2000/svg" xmlns:xlink="http://www.w3.org/1999/xlink" width="500" zoomAndPan="magnify" viewBox="0 0 375 374.999991" height="500" preserveAspectRatio="xMidYMid meet" version="1.0"><defs><g/><clipPath id="c848924acc"><path d="M 7.402344 138.382812 L 63 138.382812 L 63 187 L 7.402344 187 Z M 7.402344 138.382812 " clip-rule="nonzero"/></clipPath><clipPath id="ecda80ef38"><path d="M 7.402344 188 L 63 188 L 63 236.46875 L 7.402344 236.46875 Z M 7.402344 188 " clip-rule="nonzero"/></clipPath><clipPath id="c7dc5dbb36"><path d="M 51 163 L 106.242188 163 L 106.242188 212 L 51 212 Z M 51 163 " clip-rule="nonzero"/></clipPath></defs><g clip-path="url(#c848924acc)"><path fill="#00165a" d="M 48.738281 138.414062 L 21.253906 138.414062 L 7.511719 162.214844 L 21.253906 186.015625 L 48.738281 186.015625 L 62.480469 162.214844 L 48.738281 138.414062 " fill-opacity="1" fill-rule="nonzero"/></g><g clip-path="url(#ecda80ef38)"><path fill="#00165a" d="M 21.253906 188.964844 L 7.511719 212.765625 L 21.253906 236.566406 L 48.738281 236.566406 L 62.480469 212.765625 L 48.738281 188.964844 L 21.253906 188.964844 " fill-opacity="1" fill-rule="nonzero"/></g><g clip-path="url(#c7dc5dbb36)"><path fill="#00165a" d="M 88.023438 206.101562 C 87.550781 205.828125 87.289062 205.332031 87.289062 204.824219 C 87.289062 204.574219 87.351562 204.320312 87.484375 204.085938 L 97.066406 187.492188 L 87.484375 170.894531 C 87.078125 170.1875 87.320312 169.285156 88.023438 168.878906 C 88.730469 168.472656 89.632812 168.714844 90.039062 169.417969 L 100.046875 186.753906 C 100.3125 187.210938 100.3125 187.773438 100.046875 188.230469 L 90.039062 205.5625 C 89.632812 206.269531 88.730469 206.507812 88.023438 206.101562 Z M 106.238281 187.492188 L 92.496094 163.691406 L 65.015625 163.691406 L 51.273438 187.492188 L 65.015625 211.292969 L 92.496094 211.292969 L 106.238281 187.492188 " fill-opacity="1" fill-rule="nonzero"/></g><g fill="#00165a" fill-opacity="1"><g transform="translate(107.206398, 204.191145)"><g><path d="M 21.546875 -34.90625 L 21.546875 -4.859375 C 21.546875 -3.515625 21.789062 -2.523438 22.28125 -1.890625 C 22.769531 -1.253906 23.648438 -0.9375 24.921875 -0.9375 L 24.921875 0 C 24.003906 -0.09375 23.085938 -0.140625 22.171875 -0.140625 C 21.304688 -0.140625 20.476562 -0.09375 19.6875 0 C 18.90625 0.09375 18.191406 0.253906 17.546875 0.484375 L 17.546875 -29.5625 C 17.546875 -30.894531 17.304688 -31.878906 16.828125 -32.515625 C 16.347656 -33.148438 15.457031 -33.46875 14.15625 -33.46875 L 14.15625 -34.40625 C 15.101562 -34.320312 16.023438 -34.28125 16.921875 -34.28125 C 17.773438 -34.28125 18.59375 -34.332031 19.375 -34.4375 C 20.164062 -34.539062 20.890625 -34.695312 21.546875 -34.90625 Z M 12.203125 -23.546875 C 13.503906 -23.546875 14.722656 -23.234375 15.859375 -22.609375 C 17.003906 -21.984375 17.769531 -20.914062 18.15625 -19.40625 L 17.578125 -18.96875 C 17.160156 -20.207031 16.515625 -21.109375 15.640625 -21.671875 C 14.765625 -22.242188 13.734375 -22.53125 12.546875 -22.53125 C 10.796875 -22.53125 9.332031 -21.625 8.15625 -19.8125 C 6.988281 -18 6.421875 -15.207031 6.453125 -11.4375 C 6.453125 -9.03125 6.679688 -7.035156 7.140625 -5.453125 C 7.597656 -3.867188 8.28125 -2.679688 9.1875 -1.890625 C 10.09375 -1.109375 11.203125 -0.71875 12.515625 -0.71875 C 13.753906 -0.71875 14.878906 -1.25 15.890625 -2.3125 C 16.898438 -3.382812 17.507812 -4.957031 17.71875 -7.03125 L 18.25 -6.40625 C 18.007812 -4.15625 17.289062 -2.421875 16.09375 -1.203125 C 14.894531 0.015625 13.269531 0.625 11.21875 0.625 C 9.375 0.625 7.757812 0.179688 6.375 -0.703125 C 5 -1.597656 3.945312 -2.9375 3.21875 -4.71875 C 2.5 -6.5 2.140625 -8.738281 2.140625 -11.4375 C 2.140625 -14.132812 2.601562 -16.378906 3.53125 -18.171875 C 4.46875 -19.972656 5.703125 -21.316406 7.234375 -22.203125 C 8.765625 -23.097656 10.421875 -23.546875 12.203125 -23.546875 Z M 12.203125 -23.546875 "/></g></g></g><g fill="#00165a" fill-opacity="1"><g transform="translate(133.066538, 204.191145)"><g><path d="M 12.109375 -23.546875 C 14.722656 -23.546875 16.765625 -22.75 18.234375 -21.15625 C 19.703125 -19.570312 20.4375 -17.101562 20.4375 -13.75 L 4.71875 -13.75 L 4.671875 -14.59375 L 16.15625 -14.59375 C 16.21875 -16.050781 16.097656 -17.394531 15.796875 -18.625 C 15.503906 -19.863281 15.035156 -20.851562 14.390625 -21.59375 C 13.753906 -22.332031 12.9375 -22.703125 11.9375 -22.703125 C 10.5625 -22.703125 9.347656 -22.019531 8.296875 -20.65625 C 7.242188 -19.289062 6.613281 -17.125 6.40625 -14.15625 L 6.546875 -13.984375 C 6.484375 -13.535156 6.4375 -13.039062 6.40625 -12.5 C 6.375 -11.96875 6.359375 -11.4375 6.359375 -10.90625 C 6.359375 -8.882812 6.6875 -7.144531 7.34375 -5.6875 C 8 -4.238281 8.851562 -3.132812 9.90625 -2.375 C 10.957031 -1.625 12.046875 -1.25 13.171875 -1.25 C 14.066406 -1.25 14.914062 -1.390625 15.71875 -1.671875 C 16.519531 -1.953125 17.257812 -2.414062 17.9375 -3.0625 C 18.625 -3.71875 19.21875 -4.597656 19.71875 -5.703125 L 20.609375 -5.34375 C 20.285156 -4.363281 19.75 -3.410156 19 -2.484375 C 18.257812 -1.566406 17.328125 -0.816406 16.203125 -0.234375 C 15.078125 0.335938 13.769531 0.625 12.28125 0.625 C 10.144531 0.625 8.3125 0.132812 6.78125 -0.84375 C 5.257812 -1.820312 4.085938 -3.175781 3.265625 -4.90625 C 2.453125 -6.644531 2.046875 -8.644531 2.046875 -10.90625 C 2.046875 -13.519531 2.460938 -15.769531 3.296875 -17.65625 C 4.128906 -19.539062 5.300781 -20.992188 6.8125 -22.015625 C 8.320312 -23.035156 10.085938 -23.546875 12.109375 -23.546875 Z M 12.109375 -23.546875 "/></g></g></g><g fill="#00165a" fill-opacity="1"><g transform="translate(155.410402, 204.191145)"><g><path d="M 21.640625 -22.921875 L 21.640625 -22.03125 C 21.066406 -21.976562 20.539062 -21.726562 20.0625 -21.28125 C 19.59375 -20.832031 19.148438 -20.046875 18.734375 -18.921875 L 11.4375 0.21875 C 11.320312 0.21875 11.203125 0.21875 11.078125 0.21875 C 10.960938 0.21875 10.832031 0.21875 10.6875 0.21875 L 2.5 -19.5 C 2.019531 -20.65625 1.550781 -21.359375 1.09375 -21.609375 C 0.632812 -21.859375 0.238281 -21.984375 -0.09375 -21.984375 L -0.09375 -22.921875 C 0.5 -22.890625 1.113281 -22.851562 1.75 -22.8125 C 2.394531 -22.769531 3.085938 -22.75 3.828125 -22.75 C 4.742188 -22.75 5.710938 -22.765625 6.734375 -22.796875 C 7.765625 -22.828125 8.722656 -22.867188 9.609375 -22.921875 L 9.609375 -21.984375 C 8.867188 -21.984375 8.207031 -21.929688 7.625 -21.828125 C 7.050781 -21.722656 6.679688 -21.429688 6.515625 -20.953125 C 6.359375 -20.484375 6.5 -19.671875 6.9375 -18.515625 L 12.515625 -4.765625 L 12.234375 -4.546875 L 17.3125 -17.84375 C 17.695312 -18.820312 17.851562 -19.601562 17.78125 -20.1875 C 17.707031 -20.769531 17.410156 -21.207031 16.890625 -21.5 C 16.367188 -21.800781 15.578125 -21.976562 14.515625 -22.03125 L 14.515625 -22.921875 C 15.046875 -22.890625 15.503906 -22.867188 15.890625 -22.859375 C 16.273438 -22.847656 16.648438 -22.832031 17.015625 -22.8125 C 17.390625 -22.800781 17.800781 -22.796875 18.25 -22.796875 C 18.9375 -22.796875 19.550781 -22.804688 20.09375 -22.828125 C 20.644531 -22.859375 21.160156 -22.890625 21.640625 -22.921875 Z M 21.640625 -22.921875 "/></g></g></g><g fill="#2caa85" fill-opacity="1"><g transform="translate(176.940251, 204.191145)"><g><path d="M 40.375 -31.515625 L 40.375 -30.625 C 39.8125 -30.507812 39.1875 -30.175781 38.5 -29.625 C 37.820312 -29.070312 37.273438 -28.113281 36.859375 -26.75 L 28.453125 0.21875 C 28.390625 0.21875 28.328125 0.21875 28.265625 0.21875 C 28.203125 0.21875 28.144531 0.21875 28.09375 0.21875 C 28.03125 0.21875 27.96875 0.21875 27.90625 0.21875 C 27.851562 0.21875 27.796875 0.21875 27.734375 0.21875 L 18.296875 -27.78125 C 17.910156 -28.9375 17.476562 -29.691406 17 -30.046875 C 16.53125 -30.398438 16.085938 -30.59375 15.671875 -30.625 L 15.671875 -31.515625 C 16.203125 -31.484375 16.867188 -31.453125 17.671875 -31.421875 C 18.472656 -31.398438 19.242188 -31.390625 19.984375 -31.390625 C 21.140625 -31.390625 22.222656 -31.398438 23.234375 -31.421875 C 24.242188 -31.453125 25.0625 -31.484375 25.6875 -31.515625 L 25.6875 -30.625 C 24.789062 -30.59375 24.082031 -30.503906 23.5625 -30.359375 C 23.050781 -30.210938 22.753906 -29.882812 22.671875 -29.375 C 22.597656 -28.875 22.742188 -28.046875 23.109375 -26.890625 L 29.734375 -6.359375 L 29.109375 -5.828125 L 34.984375 -24.3125 C 35.523438 -25.9375 35.769531 -27.203125 35.71875 -28.109375 C 35.675781 -29.015625 35.34375 -29.648438 34.71875 -30.015625 C 34.09375 -30.390625 33.160156 -30.59375 31.921875 -30.625 L 31.921875 -31.515625 C 32.773438 -31.484375 33.644531 -31.453125 34.53125 -31.421875 C 35.425781 -31.398438 36.257812 -31.390625 37.03125 -31.390625 C 37.800781 -31.390625 38.4375 -31.398438 38.9375 -31.421875 C 39.445312 -31.453125 39.925781 -31.484375 40.375 -31.515625 Z M 9.265625 -31.515625 L 9.265625 -30.625 C 8.492188 -30.5625 7.9375 -30.410156 7.59375 -30.171875 C 7.25 -29.941406 7.082031 -29.566406 7.09375 -29.046875 C 7.113281 -28.523438 7.269531 -27.804688 7.5625 -26.890625 L 14.46875 -5.828125 L 13.359375 -4.71875 L 19.59375 -24.609375 L 20.25 -23.546875 L 12.90625 0.21875 C 12.851562 0.21875 12.796875 0.21875 12.734375 0.21875 C 12.671875 0.21875 12.609375 0.21875 12.546875 0.21875 C 12.492188 0.21875 12.4375 0.21875 12.375 0.21875 C 12.3125 0.21875 12.253906 0.21875 12.203125 0.21875 L 2.765625 -27.78125 C 2.378906 -28.9375 1.890625 -29.691406 1.296875 -30.046875 C 0.703125 -30.398438 0.164062 -30.59375 -0.3125 -30.625 L -0.3125 -31.515625 C 0.28125 -31.484375 1.015625 -31.453125 1.890625 -31.421875 C 2.765625 -31.398438 3.617188 -31.390625 4.453125 -31.390625 C 5.429688 -31.390625 6.34375 -31.398438 7.1875 -31.421875 C 8.03125 -31.453125 8.722656 -31.484375 9.265625 -31.515625 Z M 9.265625 -31.515625 "/></g></g></g><g fill="#2caa85" fill-opacity="1"><g transform="translate(214.996053, 204.191145)"><g><path d="M 7.609375 0.3125 C 6.390625 0.3125 5.332031 0.0820312 4.4375 -0.375 C 3.550781 -0.832031 2.878906 -1.476562 2.421875 -2.3125 C 1.960938 -3.144531 1.734375 -4.109375 1.734375 -5.203125 C 1.734375 -6.515625 2.035156 -7.582031 2.640625 -8.40625 C 3.253906 -9.238281 4.035156 -9.90625 4.984375 -10.40625 C 5.929688 -10.914062 6.929688 -11.34375 7.984375 -11.6875 C 9.046875 -12.03125 10.050781 -12.351562 11 -12.65625 C 11.945312 -12.96875 12.722656 -13.332031 13.328125 -13.75 C 13.941406 -14.164062 14.25 -14.71875 14.25 -15.40625 L 14.25 -18.15625 C 14.25 -19.40625 14.0625 -20.351562 13.6875 -21 C 13.3125 -21.65625 12.8125 -22.09375 12.1875 -22.3125 C 11.570312 -22.539062 10.878906 -22.65625 10.109375 -22.65625 C 9.359375 -22.65625 8.5625 -22.550781 7.71875 -22.34375 C 6.875 -22.132812 6.203125 -21.707031 5.703125 -21.0625 C 6.265625 -20.9375 6.753906 -20.632812 7.171875 -20.15625 C 7.585938 -19.6875 7.796875 -19.082031 7.796875 -18.34375 C 7.796875 -17.601562 7.554688 -17.015625 7.078125 -16.578125 C 6.597656 -16.148438 5.988281 -15.9375 5.25 -15.9375 C 4.394531 -15.9375 3.765625 -16.207031 3.359375 -16.75 C 2.960938 -17.300781 2.765625 -17.921875 2.765625 -18.609375 C 2.765625 -19.378906 2.957031 -20 3.34375 -20.46875 C 3.726562 -20.945312 4.21875 -21.394531 4.8125 -21.8125 C 5.488281 -22.289062 6.367188 -22.695312 7.453125 -23.03125 C 8.535156 -23.375 9.757812 -23.546875 11.125 -23.546875 C 12.34375 -23.546875 13.378906 -23.40625 14.234375 -23.125 C 15.097656 -22.84375 15.8125 -22.4375 16.375 -21.90625 C 17.15625 -21.1875 17.660156 -20.316406 17.890625 -19.296875 C 18.128906 -18.273438 18.25 -17.050781 18.25 -15.625 L 18.25 -3.25 C 18.25 -2.507812 18.359375 -1.972656 18.578125 -1.640625 C 18.804688 -1.316406 19.15625 -1.15625 19.625 -1.15625 C 19.957031 -1.15625 20.269531 -1.226562 20.5625 -1.375 C 20.863281 -1.53125 21.222656 -1.769531 21.640625 -2.09375 L 22.125 -1.328125 C 21.5 -0.859375 20.90625 -0.46875 20.34375 -0.15625 C 19.78125 0.15625 19.023438 0.3125 18.078125 0.3125 C 17.210938 0.3125 16.5 0.164062 15.9375 -0.125 C 15.375 -0.425781 14.953125 -0.863281 14.671875 -1.4375 C 14.390625 -2.019531 14.25 -2.757812 14.25 -3.65625 C 13.445312 -2.3125 12.488281 -1.3125 11.375 -0.65625 C 10.257812 -0.0078125 9.003906 0.3125 7.609375 0.3125 Z M 9.21875 -1.46875 C 10.195312 -1.46875 11.109375 -1.75 11.953125 -2.3125 C 12.796875 -2.875 13.5625 -3.722656 14.25 -4.859375 L 14.25 -13.578125 C 13.882812 -13.078125 13.359375 -12.65625 12.671875 -12.3125 C 11.992188 -11.96875 11.253906 -11.625 10.453125 -11.28125 C 9.660156 -10.9375 8.898438 -10.535156 8.171875 -10.078125 C 7.441406 -9.617188 6.835938 -9.019531 6.359375 -8.28125 C 5.890625 -7.539062 5.65625 -6.578125 5.65625 -5.390625 C 5.65625 -4.203125 5.972656 -3.25 6.609375 -2.53125 C 7.242188 -1.820312 8.113281 -1.46875 9.21875 -1.46875 Z M 9.21875 -1.46875 "/></g></g></g><g fill="#2caa85" fill-opacity="1"><g transform="translate(236.894827, 204.191145)"><g><path d="M 21.984375 -22.921875 L 21.984375 -22.03125 C 21.421875 -21.976562 20.898438 -21.726562 20.421875 -21.28125 C 19.953125 -20.832031 19.507812 -20.046875 19.09375 -18.921875 L 11.796875 0.21875 L 11.046875 0.21875 L 2.84375 -19.5 C 2.28125 -20.65625 1.722656 -21.359375 1.171875 -21.609375 C 0.628906 -21.859375 0.179688 -21.984375 -0.171875 -21.984375 L -0.171875 -22.921875 C 0.472656 -22.835938 1.148438 -22.769531 1.859375 -22.71875 C 2.578125 -22.675781 3.351562 -22.65625 4.1875 -22.65625 C 5.101562 -22.65625 6.070312 -22.6875 7.09375 -22.75 C 8.125 -22.8125 9.082031 -22.867188 9.96875 -22.921875 L 9.96875 -21.984375 C 9.226562 -21.984375 8.566406 -21.929688 7.984375 -21.828125 C 7.410156 -21.722656 7.046875 -21.410156 6.890625 -20.890625 C 6.742188 -20.378906 6.925781 -19.5 7.4375 -18.25 L 12.90625 -4.671875 L 12.640625 -4.578125 L 17.71875 -17.84375 C 18.101562 -18.820312 18.257812 -19.601562 18.1875 -20.1875 C 18.113281 -20.769531 17.804688 -21.207031 17.265625 -21.5 C 16.734375 -21.800781 15.9375 -21.976562 14.875 -22.03125 L 14.875 -22.921875 C 15.40625 -22.890625 15.863281 -22.867188 16.25 -22.859375 C 16.632812 -22.847656 17.007812 -22.832031 17.375 -22.8125 C 17.75 -22.800781 18.160156 -22.796875 18.609375 -22.796875 C 19.285156 -22.796875 19.898438 -22.804688 20.453125 -22.828125 C 21.003906 -22.859375 21.515625 -22.890625 21.984375 -22.921875 Z M 11.796875 0.21875 L 10.28125 4.09375 C 9.988281 4.832031 9.6875 5.453125 9.375 5.953125 C 9.0625 6.460938 8.726562 6.882812 8.375 7.21875 C 7.894531 7.65625 7.328125 7.957031 6.671875 8.125 C 6.023438 8.289062 5.429688 8.375 4.890625 8.375 C 4.328125 8.375 3.816406 8.269531 3.359375 8.0625 C 2.898438 7.851562 2.535156 7.546875 2.265625 7.140625 C 2.003906 6.742188 1.875 6.265625 1.875 5.703125 C 1.875 4.984375 2.078125 4.410156 2.484375 3.984375 C 2.898438 3.554688 3.484375 3.34375 4.234375 3.34375 C 4.847656 3.34375 5.378906 3.519531 5.828125 3.875 C 6.273438 4.226562 6.5 4.75 6.5 5.4375 C 6.5 5.9375 6.378906 6.347656 6.140625 6.671875 C 5.898438 7.003906 5.617188 7.257812 5.296875 7.4375 C 5.359375 7.46875 5.410156 7.484375 5.453125 7.484375 C 5.492188 7.484375 5.53125 7.484375 5.5625 7.484375 C 6.363281 7.484375 7.078125 7.207031 7.703125 6.65625 C 8.328125 6.101562 8.875 5.21875 9.34375 4 L 10.953125 -0.140625 Z M 11.796875 0.21875 "/></g></g></g><g fill="#2caa85" fill-opacity="1"><g transform="translate(259.32773, 204.191145)"><g><path d="M 8.375 -23.421875 L 8.375 3.921875 C 8.375 5.191406 8.75 6.039062 9.5 6.46875 C 10.257812 6.90625 11.304688 7.125 12.640625 7.125 L 12.640625 8.0625 C 11.984375 8.03125 11.078125 7.988281 9.921875 7.9375 C 8.765625 7.894531 7.535156 7.875 6.234375 7.875 C 5.316406 7.875 4.40625 7.894531 3.5 7.9375 C 2.59375 7.988281 1.898438 8.03125 1.421875 8.0625 L 1.421875 7.125 C 2.492188 7.125 3.25 6.929688 3.6875 6.546875 C 4.132812 6.160156 4.359375 5.429688 4.359375 4.359375 L 4.359375 -18.078125 C 4.359375 -19.410156 4.117188 -20.394531 3.640625 -21.03125 C 3.171875 -21.664062 2.285156 -21.984375 0.984375 -21.984375 L 0.984375 -22.921875 C 1.929688 -22.835938 2.847656 -22.796875 3.734375 -22.796875 C 4.597656 -22.796875 5.421875 -22.847656 6.203125 -22.953125 C 6.992188 -23.054688 7.71875 -23.210938 8.375 -23.421875 Z M 15.484375 -23.546875 C 17.054688 -23.546875 18.46875 -23.125 19.71875 -22.28125 C 20.96875 -21.4375 21.953125 -20.195312 22.671875 -18.5625 C 23.398438 -16.925781 23.765625 -14.910156 23.765625 -12.515625 C 23.765625 -10.910156 23.570312 -9.328125 23.1875 -7.765625 C 22.800781 -6.210938 22.203125 -4.800781 21.390625 -3.53125 C 20.578125 -2.269531 19.523438 -1.257812 18.234375 -0.5 C 16.941406 0.25 15.390625 0.625 13.578125 0.625 C 12.179688 0.625 10.96875 0.300781 9.9375 -0.34375 C 8.914062 -1 8.226562 -1.789062 7.875 -2.71875 L 8.328125 -3.34375 C 8.742188 -2.507812 9.34375 -1.8125 10.125 -1.25 C 10.914062 -0.6875 11.90625 -0.40625 13.09375 -0.40625 C 14.75 -0.40625 16.035156 -0.921875 16.953125 -1.953125 C 17.878906 -2.992188 18.523438 -4.378906 18.890625 -6.109375 C 19.265625 -7.847656 19.453125 -9.773438 19.453125 -11.890625 C 19.453125 -14.265625 19.257812 -16.207031 18.875 -17.71875 C 18.488281 -19.226562 17.910156 -20.351562 17.140625 -21.09375 C 16.367188 -21.84375 15.421875 -22.21875 14.296875 -22.21875 C 12.835938 -22.21875 11.515625 -21.613281 10.328125 -20.40625 C 9.140625 -19.207031 8.382812 -17.390625 8.0625 -14.953125 L 7.515625 -15.578125 C 7.847656 -18.097656 8.75 -20.054688 10.21875 -21.453125 C 11.6875 -22.847656 13.441406 -23.546875 15.484375 -23.546875 Z M 15.484375 -23.546875 "/></g></g></g><g fill="#2caa85" fill-opacity="1"><g transform="translate(285.18787, 204.191145)"><g><path d="M 12.203125 -23.546875 C 14.097656 -23.546875 15.800781 -23.128906 17.3125 -22.296875 C 18.832031 -21.472656 20.039062 -20.171875 20.9375 -18.390625 C 21.84375 -16.609375 22.296875 -14.289062 22.296875 -11.4375 C 22.296875 -8.59375 21.84375 -6.285156 20.9375 -4.515625 C 20.039062 -2.753906 18.832031 -1.457031 17.3125 -0.625 C 15.800781 0.207031 14.097656 0.625 12.203125 0.625 C 10.328125 0.625 8.625 0.207031 7.09375 -0.625 C 5.570312 -1.457031 4.359375 -2.753906 3.453125 -4.515625 C 2.546875 -6.285156 2.09375 -8.59375 2.09375 -11.4375 C 2.09375 -14.289062 2.546875 -16.609375 3.453125 -18.390625 C 4.359375 -20.171875 5.570312 -21.472656 7.09375 -22.296875 C 8.625 -23.128906 10.328125 -23.546875 12.203125 -23.546875 Z M 12.203125 -22.65625 C 10.503906 -22.65625 9.113281 -21.78125 8.03125 -20.03125 C 6.945312 -18.28125 6.40625 -15.414062 6.40625 -11.4375 C 6.40625 -7.457031 6.945312 -4.597656 8.03125 -2.859375 C 9.113281 -1.128906 10.503906 -0.265625 12.203125 -0.265625 C 13.890625 -0.265625 15.273438 -1.128906 16.359375 -2.859375 C 17.441406 -4.597656 17.984375 -7.457031 17.984375 -11.4375 C 17.984375 -15.414062 17.441406 -18.28125 16.359375 -20.03125 C 15.273438 -21.78125 13.890625 -22.65625 12.203125 -22.65625 Z M 12.203125 -22.65625 "/></g></g></g><g fill="#2caa85" fill-opacity="1"><g transform="translate(309.579197, 204.191145)"><g><path d="M 6.359375 -34.046875 C 7.128906 -34.046875 7.796875 -33.765625 8.359375 -33.203125 C 8.921875 -32.640625 9.203125 -31.972656 9.203125 -31.203125 C 9.203125 -30.429688 8.921875 -29.765625 8.359375 -29.203125 C 7.796875 -28.640625 7.128906 -28.359375 6.359375 -28.359375 C 5.585938 -28.359375 4.921875 -28.640625 4.359375 -29.203125 C 3.796875 -29.765625 3.515625 -30.429688 3.515625 -31.203125 C 3.515625 -31.972656 3.796875 -32.640625 4.359375 -33.203125 C 4.921875 -33.765625 5.585938 -34.046875 6.359375 -34.046875 Z M 8.6875 -23.421875 L 8.6875 -4.140625 C 8.6875 -2.890625 8.941406 -2.039062 9.453125 -1.59375 C 9.972656 -1.15625 10.84375 -0.9375 12.0625 -0.9375 L 12.0625 0 C 11.5625 -0.03125 10.796875 -0.0664062 9.765625 -0.109375 C 8.742188 -0.148438 7.710938 -0.171875 6.671875 -0.171875 C 5.660156 -0.171875 4.632812 -0.148438 3.59375 -0.109375 C 2.5625 -0.0664062 1.796875 -0.03125 1.296875 0 L 1.296875 -0.9375 C 2.503906 -0.9375 3.367188 -1.15625 3.890625 -1.59375 C 4.410156 -2.039062 4.671875 -2.890625 4.671875 -4.140625 L 4.671875 -18.078125 C 4.671875 -19.410156 4.429688 -20.394531 3.953125 -21.03125 C 3.484375 -21.664062 2.597656 -21.984375 1.296875 -21.984375 L 1.296875 -22.921875 C 2.242188 -22.835938 3.160156 -22.796875 4.046875 -22.796875 C 4.910156 -22.796875 5.734375 -22.847656 6.515625 -22.953125 C 7.304688 -23.054688 8.03125 -23.210938 8.6875 -23.421875 Z M 8.6875 -23.421875 "/></g></g></g><g fill="#2caa85" fill-opacity="1"><g transform="translate(322.620539, 204.191145)"><g><path d="M 16.25 -23.546875 C 17.375 -23.546875 18.3125 -23.394531 19.0625 -23.09375 C 19.820312 -22.800781 20.457031 -22.390625 20.96875 -21.859375 C 21.53125 -21.265625 21.929688 -20.519531 22.171875 -19.625 C 22.410156 -18.738281 22.53125 -17.539062 22.53125 -16.03125 L 22.53125 -4.140625 C 22.53125 -2.890625 22.785156 -2.039062 23.296875 -1.59375 C 23.816406 -1.15625 24.6875 -0.9375 25.90625 -0.9375 L 25.90625 0 C 25.40625 -0.03125 24.632812 -0.0664062 23.59375 -0.109375 C 22.550781 -0.148438 21.539062 -0.171875 20.5625 -0.171875 C 19.582031 -0.171875 18.625 -0.148438 17.6875 -0.109375 C 16.757812 -0.0664062 16.054688 -0.03125 15.578125 0 L 15.578125 -0.9375 C 16.648438 -0.9375 17.40625 -1.15625 17.84375 -1.59375 C 18.289062 -2.039062 18.515625 -2.890625 18.515625 -4.140625 L 18.515625 -17 C 18.515625 -17.925781 18.441406 -18.773438 18.296875 -19.546875 C 18.148438 -20.316406 17.816406 -20.9375 17.296875 -21.40625 C 16.773438 -21.882812 15.976562 -22.125 14.90625 -22.125 C 13.664062 -22.125 12.578125 -21.765625 11.640625 -21.046875 C 10.703125 -20.335938 9.972656 -19.367188 9.453125 -18.140625 C 8.941406 -16.910156 8.6875 -15.535156 8.6875 -14.015625 L 8.6875 -4.140625 C 8.6875 -2.890625 8.90625 -2.039062 9.34375 -1.59375 C 9.789062 -1.15625 10.550781 -0.9375 11.625 -0.9375 L 11.625 0 C 11.144531 -0.03125 10.4375 -0.0664062 9.5 -0.109375 C 8.570312 -0.148438 7.617188 -0.171875 6.640625 -0.171875 C 5.648438 -0.171875 4.632812 -0.148438 3.59375 -0.109375 C 2.5625 -0.0664062 1.796875 -0.03125 1.296875 0 L 1.296875 -0.9375 C 2.503906 -0.9375 3.367188 -1.15625 3.890625 -1.59375 C 4.410156 -2.039062 4.671875 -2.890625 4.671875 -4.140625 L 4.671875 -18.078125 C 4.671875 -19.410156 4.429688 -20.394531 3.953125 -21.03125 C 3.484375 -21.664062 2.597656 -21.984375 1.296875 -21.984375 L 1.296875 -22.921875 C 2.242188 -22.835938 3.160156 -22.796875 4.046875 -22.796875 C 4.910156 -22.796875 5.734375 -22.847656 6.515625 -22.953125 C 7.304688 -23.054688 8.03125 -23.210938 8.6875 -23.421875 L 8.6875 -18.15625 C 9.457031 -20.175781 10.53125 -21.578125 11.90625 -22.359375 C 13.289062 -23.148438 14.738281 -23.546875 16.25 -23.546875 Z M 16.25 -23.546875 "/></g></g></g><g fill="#2caa85" fill-opacity="1"><g transform="translate(349.192834, 204.191145)"><g><path d="M 8.453125 -30.3125 L 8.453125 -22.875 L 15.046875 -22.875 L 15.046875 -21.984375 L 8.453125 -21.984375 L 8.453125 -4.765625 C 8.453125 -3.367188 8.703125 -2.390625 9.203125 -1.828125 C 9.710938 -1.265625 10.414062 -0.984375 11.3125 -0.984375 C 12.195312 -0.984375 12.960938 -1.34375 13.609375 -2.0625 C 14.265625 -2.789062 14.832031 -4.019531 15.3125 -5.75 L 16.203125 -5.515625 C 15.910156 -3.796875 15.320312 -2.34375 14.4375 -1.15625 C 13.5625 0.03125 12.222656 0.625 10.421875 0.625 C 9.410156 0.625 8.578125 0.492188 7.921875 0.234375 C 7.265625 -0.015625 6.6875 -0.375 6.1875 -0.84375 C 5.53125 -1.53125 5.078125 -2.347656 4.828125 -3.296875 C 4.578125 -4.242188 4.453125 -5.503906 4.453125 -7.078125 L 4.453125 -21.984375 L 0.171875 -21.984375 L 0.171875 -22.875 L 4.453125 -22.875 L 4.453125 -29.6875 C 5.191406 -29.71875 5.898438 -29.773438 6.578125 -29.859375 C 7.265625 -29.953125 7.890625 -30.101562 8.453125 -30.3125 Z M 8.453125 -30.3125 "/></g></g></g></svg>